<?xml version="1.0" encoding="UTF-8" standalone="no" ?>
<!DOCTYPE svg PUBLIC "-//W3C//DTD SVG 1.1//EN" "http://www.w3.org/Graphics/SVG/1.1/DTD/svg11.dtd">
<svg xmlns="http://www.w3.org/2000/svg" xmlns:xlink="http://www.w3.org/1999/xlink" version="1.1" width="25" height="25" viewBox="0 0 25 25" xml:space="preserve">
<desc>Created with Fabric.js 5.3.0</desc>
<defs>
</defs>
<g transform="matrix(1.2383298615 0 0 1.2383298615 12.5 12.5)" id="yRBynZSeYVMDDJbX_WprP"  >
<path style="stroke: rgb(128,209,44); stroke-width: 0; stroke-dasharray: none; stroke-linecap: butt; stroke-dashoffset: 0; stroke-linejoin: miter; stroke-miterlimit: 4; fill: rgb(255,158,158); fill-rule: nonzero; opacity: 1;"  transform=" translate(0, 0)" d="M 0 -9.79548 C 5.4071 -9.79548 9.79548 -5.407109999999999 9.79548 0 C 9.79548 5.4071 5.407109999999999 9.79548 0 9.79548 C -5.4071 9.79548 -9.79548 5.407109999999999 -9.79548 0 C -9.79548 -5.4071 -5.407109999999999 -9.79548 0 -9.79548 z" stroke-linecap="round" />
</g>
<g transform="matrix(-0.7849614162 0 0 1 17.3326817048 10.2894134718)" id="5hdhIVU2vljQml0xCs1ne"  >
<path style="stroke: rgb(184,84,142); stroke-width: 0; stroke-dasharray: none; stroke-linecap: butt; stroke-dashoffset: 0; stroke-linejoin: miter; stroke-miterlimit: 4; fill: rgb(54,54,54); fill-rule: nonzero; opacity: 1;"  transform=" translate(0, 0.000005328)" d="M 0 -2.08798 C 2.12213 -1.41521 2.78862 -0.9956 2.78862 -0.45543 C 2.78862 0.9189700000000001 1.5393199999999998 2.33319 0 2.33319 C -1.53932 2.33319 -2.78862 1.08389 -2.78862 -0.4554299999999998 C -2.78862 -1.9947499999999998 -2.12212 -2.76075 0 -2.08798 z" stroke-linecap="round" />
</g>
<g transform="matrix(0.7849614162 0 0 1 7.6673182953 10.1668029525)" id="Ki8BD9Ay5IoS2XFld--Wo"  >
<path style="stroke: rgb(184,84,142); stroke-width: 0; stroke-dasharray: none; stroke-linecap: butt; stroke-dashoffset: 0; stroke-linejoin: miter; stroke-miterlimit: 4; fill: rgb(54,54,54); fill-rule: nonzero; opacity: 1;"  transform=" translate(0, 0.000005328)" d="M 0 -2.08798 C 2.12213 -1.41521 2.78862 -0.9956 2.78862 -0.45543 C 2.78862 0.9189700000000001 1.5393199999999998 2.33319 0 2.33319 C -1.53932 2.33319 -2.78862 1.08389 -2.78862 -0.4554299999999998 C -2.78862 -1.9947499999999998 -2.12212 -2.76075 0 -2.08798 z" stroke-linecap="round" />
</g>
<g transform="matrix(2.9402232795 0 0 -1.2525960007 12.5 16.4908977259)" id="gcBQo_9snIGdGcfol_bQ_"  >
<path style="stroke: rgb(36,196,214); stroke-width: 0; stroke-dasharray: none; stroke-linecap: butt; stroke-dashoffset: 0; stroke-linejoin: miter; stroke-miterlimit: 4; fill: rgb(54,54,54); fill-rule: nonzero; opacity: 1;"  transform=" translate(0, 0.000005218)" d="M 0 0.06473 C 1.96048 0.10346999999999999 1.93723 -1.875 1.93723 -0.8056500000000001 C 1.93723 0.26369999999999993 1.06935 1.13158 0 1.13158 C -1.06935 1.13158 -1.93723 0.26370000000000005 -1.93723 -0.80565 C -1.93723 -1.875 -1.96048 0.02599000000000007 0 0.06473000000000007 z" stroke-linecap="round" />
</g>
<g transform="matrix(1.2383298615 0 0 1.2383298615 12.5 12.5)" id="f6QiaM0LAt6hDIrYDJbPN"  >
<path style="stroke: rgb(128,209,44); stroke-width: 0; stroke-dasharray: none; stroke-linecap: butt; stroke-dashoffset: 0; stroke-linejoin: miter; stroke-miterlimit: 4; fill: rgb(255,243,158); fill-rule: nonzero; opacity: 1;"  transform=" translate(0, 0)" d="M 0 -9.79548 C 5.4071 -9.79548 9.79548 -5.407109999999999 9.79548 0 C 9.79548 5.4071 5.407109999999999 9.79548 0 9.79548 C -5.4071 9.79548 -9.79548 5.407109999999999 -9.79548 0 C -9.79548 -5.4071 -5.407109999999999 -9.79548 0 -9.79548 z" stroke-linecap="round" />
</g>
<g transform="matrix(0.7849614162 0 0 1 7.6673182954 9.6277175795)" id="mU1tAiFLRq6BxrrFPJlcF"  >
<path style="stroke: rgb(184,84,142); stroke-width: 0; stroke-dasharray: none; stroke-linecap: butt; stroke-dashoffset: 0; stroke-linejoin: miter; stroke-miterlimit: 4; fill: rgb(54,54,54); fill-rule: nonzero; opacity: 1;"  transform=" translate(0, 0)" d="M 0 -2.87228 C 1.53932 -2.87228 2.78862 -1.45566 2.78862 0.08366000000000007 C 2.78862 1.62298 1.5393199999999998 2.87228 0 2.87228 C -1.53932 2.87228 -2.78862 1.6229799999999999 -2.78862 0.08366000000000007 C -2.78862 -1.45566 -1.5393199999999998 -2.87228 0 -2.87228 z" stroke-linecap="round" />
</g>
<g transform="matrix(0.7849614162 0 0 1 17.3326836048 9.6277213274)" id="V9mOznr90ca9jL9ND87b7"  >
<path style="stroke: rgb(184,84,142); stroke-width: 0; stroke-dasharray: none; stroke-linecap: butt; stroke-dashoffset: 0; stroke-linejoin: miter; stroke-miterlimit: 4; fill: rgb(54,54,54); fill-rule: nonzero; opacity: 1;"  transform=" translate(0, 0)" d="M 0 -2.87228 C 1.53932 -2.87228 2.78862 -1.45566 2.78862 0.08366000000000007 C 2.78862 1.62298 1.5393199999999998 2.87228 0 2.87228 C -1.53932 2.87228 -2.78862 1.6229799999999999 -2.78862 0.08366000000000007 C -2.78862 -1.45566 -1.5393199999999998 -2.87228 0 -2.87228 z" stroke-linecap="round" />
</g>
<g transform="matrix(1.4064998297 0 0 0.4025938434 12.5 17.1375592173)" id="NaMsCh0Nk5xTo-iKhjoAs"  >
<path style="stroke: rgb(42,190,73); stroke-width: 0; stroke-dasharray: none; stroke-linecap: butt; stroke-dashoffset: 0; stroke-linejoin: miter; stroke-miterlimit: 4; fill: rgb(54,54,54); fill-rule: nonzero; opacity: 1;"  transform=" translate(0, 0)" d="M -2.78862 -0.07499 C -2.78862 -1.57369 -2.44086 -2.7886200000000003 -2.0118799999999997 -2.7886200000000003 L 2.0118800000000006 -2.7886200000000003 L 2.0118800000000006 -2.7886200000000003 C 2.4408600000000007 -2.7886200000000003 2.7886200000000008 -1.5736900000000003 2.7886200000000008 -0.07499000000000011 L 2.7886200000000008 0.07498999999999989 L 2.7886200000000008 0.07498999999999989 C 2.7886200000000008 1.5736899999999998 2.4408600000000007 2.78862 2.0118800000000006 2.78862 L -2.0118799999999997 2.78862 L -2.0118799999999997 2.78862 C -2.44086 2.78862 -2.78862 1.5736899999999998 -2.78862 0.07498999999999967 z" stroke-linecap="round" />
</g>
</svg>