<?xml version="1.0" encoding="UTF-8" standalone="no" ?>
<!DOCTYPE svg PUBLIC "-//W3C//DTD SVG 1.1//EN" "http://www.w3.org/Graphics/SVG/1.1/DTD/svg11.dtd">
<svg xmlns="http://www.w3.org/2000/svg" xmlns:xlink="http://www.w3.org/1999/xlink" version="1.1" width="25" height="25" viewBox="0 0 25 25" xml:space="preserve">
<desc>Created with Fabric.js 5.3.0</desc>
<defs>
</defs>
<g transform="matrix(1.2383298615 0 0 1.2383298615 12.5 12.5)" id="GJWN3weBZ1leqE_ZyMt8Q"  >
<path style="stroke: rgb(128,209,44); stroke-width: 0; stroke-dasharray: none; stroke-linecap: butt; stroke-dashoffset: 0; stroke-linejoin: miter; stroke-miterlimit: 4; fill: rgb(255,243,158); fill-rule: nonzero; opacity: 1;"  transform=" translate(0, 0)" d="M 0 -9.79548 C 5.4071 -9.79548 9.79548 -5.407109999999999 9.79548 0 C 9.79548 5.4071 5.407109999999999 9.79548 0 9.79548 C -5.4071 9.79548 -9.79548 5.407109999999999 -9.79548 0 C -9.79548 -5.4071 -5.407109999999999 -9.79548 0 -9.79548 z" stroke-linecap="round" />
</g>
<g transform="matrix(0.7849614162 0 0 1 7.6673182953 9.7113775795)" id="RvaJIMWWY1pjeWZ4nIhCZ"  >
<path style="stroke: rgb(184,84,142); stroke-width: 0; stroke-dasharray: none; stroke-linecap: butt; stroke-dashoffset: 0; stroke-linejoin: miter; stroke-miterlimit: 4; fill: rgb(54,54,54); fill-rule: nonzero; opacity: 1;"  transform=" translate(0, 0)" d="M 0 -2.78862 C 1.53932 -2.78862 2.78862 -1.5393199999999998 2.78862 0 C 2.78862 1.53932 1.5393199999999998 2.78862 0 2.78862 C -1.53932 2.78862 -2.78862 1.5393199999999998 -2.78862 0 C -2.78862 -1.53932 -1.5393199999999998 -2.78862 0 -2.78862 z" stroke-linecap="round" />
</g>
<g transform="matrix(0.7849614162 0 0 1 17.3326836048 9.71138)" id="aclB3HxBcoN4HkDlh9rd_"  >
<path style="stroke: rgb(184,84,142); stroke-width: 0; stroke-dasharray: none; stroke-linecap: butt; stroke-dashoffset: 0; stroke-linejoin: miter; stroke-miterlimit: 4; fill: rgb(54,54,54); fill-rule: nonzero; opacity: 1;"  transform=" translate(0, 0)" d="M 0 -2.78862 C 1.53932 -2.78862 2.78862 -1.5393199999999998 2.78862 0 C 2.78862 1.53932 1.5393199999999998 2.78862 0 2.78862 C -1.53932 2.78862 -2.78862 1.5393199999999998 -2.78862 0 C -2.78862 -1.53932 -1.5393199999999998 -2.78862 0 -2.78862 z" stroke-linecap="round" />
</g>
<g transform="matrix(1.3668141589 0 0 1.0856508908 12.5 17.0400559777)" id="-z9LJNcwp0AknDNm9PPK0"  >
<path style="stroke: rgb(184,84,142); stroke-width: 0; stroke-dasharray: none; stroke-linecap: butt; stroke-dashoffset: 0; stroke-linejoin: miter; stroke-miterlimit: 4; fill: rgb(54,54,54); fill-rule: nonzero; opacity: 1;"  transform=" translate(0, 0)" d="M 0 -1.80757 C 1.53932 -1.80757 2.78862 -0.5582699999999998 2.78862 0.98105 C 2.78862 2.5203699999999998 1.5393199999999998 1.4377 0 1.4377 C -1.53932 1.4377 -2.78862 2.5203699999999998 -2.78862 0.98105 C -2.78862 -0.55827 -1.5393199999999998 -1.80757 0 -1.80757 z" stroke-linecap="round" />
</g>
</svg>