<?xml version="1.0" encoding="UTF-8" standalone="no" ?>
<!DOCTYPE svg PUBLIC "-//W3C//DTD SVG 1.1//EN" "http://www.w3.org/Graphics/SVG/1.1/DTD/svg11.dtd">
<svg xmlns="http://www.w3.org/2000/svg" xmlns:xlink="http://www.w3.org/1999/xlink" version="1.1" width="25" height="25" viewBox="0 0 25 25" xml:space="preserve">
<desc>Created with Fabric.js 5.3.0</desc>
<defs>
</defs>
<g transform="matrix(1.2383298615 0 0 1.2383298615 12.5 12.5)" id="yRBynZSeYVMDDJbX_WprP"  >
<path style="stroke: rgb(128,209,44); stroke-width: 0; stroke-dasharray: none; stroke-linecap: butt; stroke-dashoffset: 0; stroke-linejoin: miter; stroke-miterlimit: 4; fill: rgb(255,158,158); fill-rule: nonzero; opacity: 1;"  transform=" translate(0, 0)" d="M 0 -9.79548 C 5.4071 -9.79548 9.79548 -5.407109999999999 9.79548 0 C 9.79548 5.4071 5.407109999999999 9.79548 0 9.79548 C -5.4071 9.79548 -9.79548 5.407109999999999 -9.79548 0 C -9.79548 -5.4071 -5.407109999999999 -9.79548 0 -9.79548 z" stroke-linecap="round" />
</g>
<g transform="matrix(-0.7849614162 0 0 1 17.3326817048 10.2894134718)" id="5hdhIVU2vljQml0xCs1ne"  >
<path style="stroke: rgb(184,84,142); stroke-width: 0; stroke-dasharray: none; stroke-linecap: butt; stroke-dashoffset: 0; stroke-linejoin: miter; stroke-miterlimit: 4; fill: rgb(54,54,54); fill-rule: nonzero; opacity: 1;"  transform=" translate(0, 0.000005328)" d="M 0 -2.08798 C 2.12213 -1.41521 2.78862 -0.9956 2.78862 -0.45543 C 2.78862 0.9189700000000001 1.5393199999999998 2.33319 0 2.33319 C -1.53932 2.33319 -2.78862 1.08389 -2.78862 -0.4554299999999998 C -2.78862 -1.9947499999999998 -2.12212 -2.76075 0 -2.08798 z" stroke-linecap="round" />
</g>
<g transform="matrix(0.7849614162 0 0 1 7.6673182953 10.1668029525)" id="Ki8BD9Ay5IoS2XFld--Wo"  >
<path style="stroke: rgb(184,84,142); stroke-width: 0; stroke-dasharray: none; stroke-linecap: butt; stroke-dashoffset: 0; stroke-linejoin: miter; stroke-miterlimit: 4; fill: rgb(54,54,54); fill-rule: nonzero; opacity: 1;"  transform=" translate(0, 0.000005328)" d="M 0 -2.08798 C 2.12213 -1.41521 2.78862 -0.9956 2.78862 -0.45543 C 2.78862 0.9189700000000001 1.5393199999999998 2.33319 0 2.33319 C -1.53932 2.33319 -2.78862 1.08389 -2.78862 -0.4554299999999998 C -2.78862 -1.9947499999999998 -2.12212 -2.76075 0 -2.08798 z" stroke-linecap="round" />
</g>
<g transform="matrix(2.9402232795 0 0 -1.2525960007 12.5 16.4908977259)" id="gcBQo_9snIGdGcfol_bQ_"  >
<path style="stroke: rgb(36,196,214); stroke-width: 0; stroke-dasharray: none; stroke-linecap: butt; stroke-dashoffset: 0; stroke-linejoin: miter; stroke-miterlimit: 4; fill: rgb(54,54,54); fill-rule: nonzero; opacity: 1;"  transform=" translate(0, 0.000005218)" d="M 0 0.06473 C 1.96048 0.10346999999999999 1.93723 -1.875 1.93723 -0.8056500000000001 C 1.93723 0.26369999999999993 1.06935 1.13158 0 1.13158 C -1.06935 1.13158 -1.93723 0.26370000000000005 -1.93723 -0.80565 C -1.93723 -1.875 -1.96048 0.02599000000000007 0 0.06473000000000007 z" stroke-linecap="round" />
</g>
<g transform="matrix(1.2383298615 0 0 1.2383298615 12.5 12.5)" id="f6QiaM0LAt6hDIrYDJbPN"  >
<path style="stroke: rgb(128,209,44); stroke-width: 0; stroke-dasharray: none; stroke-linecap: butt; stroke-dashoffset: 0; stroke-linejoin: miter; stroke-miterlimit: 4; fill: rgb(255,243,158); fill-rule: nonzero; opacity: 1;"  transform=" translate(0, 0)" d="M 0 -9.79548 C 5.4071 -9.79548 9.79548 -5.407109999999999 9.79548 0 C 9.79548 5.4071 5.407109999999999 9.79548 0 9.79548 C -5.4071 9.79548 -9.79548 5.407109999999999 -9.79548 0 C -9.79548 -5.4071 -5.407109999999999 -9.79548 0 -9.79548 z" stroke-linecap="round" />
</g>
<g transform="matrix(1.8043792902 0 0 1.4332058028 12.5 19.081517834)" id="bJAVokIyI6aaXjraUbwNr"  >
<path style="stroke: rgb(184,84,142); stroke-width: 0; stroke-dasharray: none; stroke-linecap: butt; stroke-dashoffset: 0; stroke-linejoin: miter; stroke-miterlimit: 4; fill: rgb(54,54,54); fill-rule: nonzero; opacity: 1;"  transform=" translate(0, 0)" d="M 0 -1.80757 C 1.53932 -1.80757 2.78862 -0.5582699999999998 2.78862 0.98105 C 2.78862 2.5203699999999998 1.5393199999999998 1.4377 0 1.4377 C -1.53932 1.4377 -2.78862 2.5203699999999998 -2.78862 0.98105 C -2.78862 -0.55827 -1.5393199999999998 -1.80757 0 -1.80757 z" stroke-linecap="round" />
</g>
<g transform="matrix(-1 0 0 1 17.3454438126 16.1105005251)" id="RPTs1fuzxujLDptAKKIgP"  >
<g style=""   >
		<g transform="matrix(0.9416902067 0 0 2.7136038417 0 0.9388849775)" id="9Qsk09tk3WzPhIaBm_Ezp"  >
<path style="stroke: rgb(55,34,210); stroke-width: 0; stroke-dasharray: none; stroke-linecap: butt; stroke-dashoffset: 0; stroke-linejoin: miter; stroke-miterlimit: 4; fill: rgb(131,183,255); fill-rule: nonzero; opacity: 1;"  transform=" translate(0, 0.000005)" d="M -2.32902 -2.70416 L 2.31998 -2.70416 L 2.3290200000000003 2.7041500000000003 L 2.14196 2.68814 L 2.14196 2.68814 C 0.59755 2.5559200000000004 -0.8651 2.3277300000000003 -2.17518 2.0146200000000003 L -2.3290200000000003 1.9778500000000003 z" stroke-linecap="round" />
</g>
		<g transform="matrix(0.7849614162 0 0 1 -0.0042553858 -6.7010254332)" id="k81LFds5Ru5LUG7VY903Q"  >
<path style="stroke: rgb(184,84,142); stroke-width: 0; stroke-dasharray: none; stroke-linecap: butt; stroke-dashoffset: 0; stroke-linejoin: miter; stroke-miterlimit: 4; fill: rgb(54,54,54); fill-rule: nonzero; opacity: 1;"  transform=" translate(0, 0.0000038889)" d="M 0 -1.57587 C 1.53932 -1.57587 2.78862 -0.6476000000000001 2.78862 0.8917199999999998 C 2.78862 2.43104 1.5284799999999998 0.8917199999999998 -0.01083999999999996 0.8917199999999998 C -1.55016 0.8917199999999998 -2.78862 2.43104 -2.78862 0.8917199999999998 C -2.78862 -0.6476000000000002 -1.5393199999999998 -1.57587 0 -1.57587 z" stroke-linecap="round" />
</g>
</g>
</g>
<g transform="matrix(1 0 0 1 7.6715736811 16.1105005251)" id="EyncsnZqtRfgjgmuB7vU2"  >
<g style=""   >
		<g transform="matrix(0.9416902067 0 0 2.7136038417 0 0.9388849775)" id="MBiIUu3weUS3rFXkdXm_k"  >
<path style="stroke: rgb(55,34,210); stroke-width: 0; stroke-dasharray: none; stroke-linecap: butt; stroke-dashoffset: 0; stroke-linejoin: miter; stroke-miterlimit: 4; fill: rgb(131,183,255); fill-rule: nonzero; opacity: 1;"  transform=" translate(0, 0)" d="M -2.32902 -2.70416 L 2.31998 -2.70416 L 2.3290200000000003 2.7041500000000003 L 2.14196 2.68814 L 2.14196 2.68814 C 0.59755 2.5559200000000004 -0.8651 2.3277300000000003 -2.17518 2.0146200000000003 L -2.3290200000000003 1.9778500000000003 z" stroke-linecap="round" />
</g>
		<g transform="matrix(0.7849614162 0 0 1 -0.0042553858 -6.7010254332)" id="M1EsX81bqQI0Y3vCAS-B8"  >
<path style="stroke: rgb(184,84,142); stroke-width: 0; stroke-dasharray: none; stroke-linecap: butt; stroke-dashoffset: 0; stroke-linejoin: miter; stroke-miterlimit: 4; fill: rgb(54,54,54); fill-rule: nonzero; opacity: 1;"  transform=" translate(0, 0)" d="M 0 -1.57587 C 1.53932 -1.57587 2.78862 -0.6476000000000001 2.78862 0.8917199999999998 C 2.78862 2.43104 1.5284799999999998 0.8917199999999998 -0.01083999999999996 0.8917199999999998 C -1.55016 0.8917199999999998 -2.78862 2.43104 -2.78862 0.8917199999999998 C -2.78862 -0.6476000000000002 -1.5393199999999998 -1.57587 0 -1.57587 z" stroke-linecap="round" />
</g>
</g>
</g>
</svg>