<?xml version="1.0" encoding="UTF-8" standalone="no" ?>
<!DOCTYPE svg PUBLIC "-//W3C//DTD SVG 1.1//EN" "http://www.w3.org/Graphics/SVG/1.1/DTD/svg11.dtd">
<svg xmlns="http://www.w3.org/2000/svg" xmlns:xlink="http://www.w3.org/1999/xlink" version="1.1" width="25" height="25" viewBox="0 0 25 25" xml:space="preserve">
<desc>Created with Fabric.js 5.3.0</desc>
<defs>
</defs>
<g transform="matrix(1.2383298615 0 0 1.2383298615 12.5 12.5)" id="yRBynZSeYVMDDJbX_WprP"  >
<path style="stroke: rgb(128,209,44); stroke-width: 0; stroke-dasharray: none; stroke-linecap: butt; stroke-dashoffset: 0; stroke-linejoin: miter; stroke-miterlimit: 4; fill: rgb(255,243,158); fill-rule: nonzero; opacity: 1;"  transform=" translate(0, 0)" d="M 0 -9.79548 C 5.4071 -9.79548 9.79548 -5.407109999999999 9.79548 0 C 9.79548 5.4071 5.407109999999999 9.79548 0 9.79548 C -5.4071 9.79548 -9.79548 5.407109999999999 -9.79548 0 C -9.79548 -5.4071 -5.407109999999999 -9.79548 0 -9.79548 z" stroke-linecap="round" />
</g>
<g transform="matrix(0.7849614162 0 0 1 7.6673182953 10.2894122616)" id="Ki8BD9Ay5IoS2XFld--Wo"  >
<path style="stroke: rgb(184,84,142); stroke-width: 0; stroke-dasharray: none; stroke-linecap: butt; stroke-dashoffset: 0; stroke-linejoin: miter; stroke-miterlimit: 4; fill: rgb(54,54,54); fill-rule: nonzero; opacity: 1;"  transform=" translate(0, 0)" d="M 0 -2.21059 C 1.53932 -2.21059 2.78862 -2.1173599999999997 2.78862 -0.5780399999999999 C 2.78862 0.9612800000000001 1.5393199999999998 2.21058 0 2.21058 C -1.53932 2.21058 -2.78862 0.9612800000000001 -2.78862 -0.5780399999999997 C -2.78862 -2.1173599999999997 -1.5393199999999998 -2.21059 0 -2.21059 z" stroke-linecap="round" />
</g>
<g transform="matrix(0.7849614162 0 0 1 17.3326836048 10.2894134718)" id="Y6vAtsVi21rBkw9qaQwfu"  >
<path style="stroke: rgb(184,84,142); stroke-width: 0; stroke-dasharray: none; stroke-linecap: butt; stroke-dashoffset: 0; stroke-linejoin: miter; stroke-miterlimit: 4; fill: rgb(54,54,54); fill-rule: nonzero; opacity: 1;"  transform=" translate(0, 0)" d="M 0 -2.21059 C 1.53932 -2.21059 2.78862 -2.1173499999999996 2.78862 -0.5780299999999998 C 2.78862 0.9612900000000002 1.5393199999999998 2.21059 0 2.21059 C -1.53932 2.21059 -2.78862 0.9612899999999998 -2.78862 -0.57803 C -2.78862 -2.11735 -1.5393199999999998 -2.21059 0 -2.21059 z" stroke-linecap="round" />
</g>
<g transform="matrix(2.9402232795 0 0 -1.2525960007 12.5 16.4908977259)" id="gcBQo_9snIGdGcfol_bQ_"  >
<path style="stroke: rgb(36,196,214); stroke-width: 0; stroke-dasharray: none; stroke-linecap: butt; stroke-dashoffset: 0; stroke-linejoin: miter; stroke-miterlimit: 4; fill: rgb(54,54,54); fill-rule: nonzero; opacity: 1;"  transform=" translate(0, 0)" d="M 0 0.06473 C 1.96048 0.10346999999999999 1.93723 -1.875 1.93723 -0.8056500000000001 C 1.93723 0.26369999999999993 1.06935 1.13158 0 1.13158 C -1.06935 1.13158 -1.93723 0.26370000000000005 -1.93723 -0.80565 C -1.93723 -1.875 -1.96048 0.02599000000000007 0 0.06473000000000007 z" stroke-linecap="round" />
</g>
</svg>